<?xml version="1.0" encoding="utf-8"?>
<!-- Generator: Adobe Illustrator 25.2.3, SVG Export Plug-In . SVG Version: 6.00 Build 0)  -->
<svg version="1.1" id="Calque_1" xmlns="http://www.w3.org/2000/svg" xmlns:xlink="http://www.w3.org/1999/xlink" x="0px" y="0px"
	 viewBox="0 0 566.93 566.93" style="enable-background:new 0 0 566.93 566.93;" xml:space="preserve">
<style type="text/css">
	.st0{fill:#043242;}
	.st1{fill:#FFFFFF;}
	.st2{fill:#009FA5;}
	.st3{fill:#E94E1B;}
</style>
<rect class="st0" width="566.93" height="566.93"/>
<g>
	<g>
		<path class="st1" d="M283.24,561.42c-153.29,0-278.01-124.71-278.01-278.01c0-64.43,22.55-127.23,63.49-176.84l9.62,7.94
			c-39.1,47.38-60.63,107.36-60.63,168.9c0,146.42,119.12,265.53,265.53,265.53c146.41,0,265.53-119.12,265.53-265.53
			c0-61.86-21.73-122.09-61.2-169.58l9.59-7.97c41.32,49.73,64.08,112.79,64.08,177.55C561.25,436.71,436.53,561.42,283.24,561.42z"
			/>
	</g>
	<g>
		<path class="st2" d="M497.6,391.29l-8.91-4.49c16.25-32.24,24.5-67.02,24.5-103.39c0-41.89-11.37-82.89-32.88-118.57l8.55-5.15
			c22.45,37.23,34.32,80.01,34.32,123.72C523.16,321.35,514.56,357.65,497.6,391.29z"/>
	</g>
	<g>
		<path class="st2" d="M68.88,391.29c-16.96-33.64-25.56-69.94-25.56-107.88c0-43.71,11.87-86.49,34.32-123.72l8.55,5.15
			C64.67,200.52,53.3,241.52,53.3,283.41c0,36.37,8.24,71.15,24.5,103.39L68.88,391.29z"/>
	</g>
	<g>
		<path class="st1" d="M93.98,132.68c1.01-1.3,2.32-2.05,3.91-2.25c1.59-0.2,3.04,0.21,4.34,1.22c1.3,1.01,2.05,2.32,2.25,3.91
			c0.2,1.59-0.21,3.04-1.22,4.34c-1.02,1.3-2.32,2.05-3.91,2.25c-1.59,0.2-3.04-0.21-4.34-1.22c-1.3-1.01-2.05-2.32-2.25-3.91
			C92.56,135.43,92.97,133.98,93.98,132.68z"/>
		<path class="st3" d="M104.45,107.55c-2.36-3.06-4.15-6.49-5.36-10.27s-1.73-7.58-1.56-11.39c0.17-3.81,1.06-7.48,2.66-10.99
			c1.61-3.51,4.07-6.55,7.38-9.11c3.4-2.62,7.01-4.27,10.84-4.95c3.83-0.68,7.59-0.6,11.28,0.24c3.69,0.84,7.2,2.33,10.53,4.48
			c3.33,2.15,6.18,4.76,8.54,7.82c1.52,1.97,2.82,4.11,3.9,6.43c1.08,2.31,1.88,4.69,2.4,7.14c0.52,2.45,0.75,4.93,0.71,7.43
			c-0.04,2.51-0.38,4.95-1.03,7.32c1.05-0.21,2.15-0.38,3.3-0.54c1.15-0.15,2.3-0.35,3.45-0.6c1.15-0.25,2.25-0.58,3.3-0.99
			c1.05-0.41,2.02-0.96,2.91-1.64l5.83,7.55c-2.22,1.72-4.55,2.89-6.97,3.52s-4.85,1.15-7.29,1.56c-2.43,0.4-4.82,0.89-7.16,1.46
			c-2.34,0.57-4.5,1.61-6.47,3.13c-3.4,2.62-7.01,4.27-10.84,4.95c-3.83,0.68-7.59,0.6-11.28-0.24c-3.69-0.83-7.2-2.33-10.53-4.48
			C109.66,113.22,106.81,110.61,104.45,107.55z M112.76,101.14c1.81,2.35,3.88,4.29,6.19,5.82c2.31,1.53,4.7,2.58,7.16,3.16
			c2.46,0.58,4.87,0.68,7.25,0.28c2.37-0.39,4.53-1.33,6.46-2.82c1.89-1.46,3.33-3.28,4.31-5.48c0.98-2.2,1.51-4.56,1.57-7.08
			c0.06-2.52-0.34-5.11-1.21-7.75c-0.87-2.64-2.21-5.14-4.02-7.49c-1.81-2.35-3.89-4.28-6.22-5.79c-2.34-1.51-4.73-2.56-7.19-3.14
			c-2.45-0.58-4.87-0.67-7.25-0.28c-2.37,0.39-4.51,1.32-6.39,2.77c-2.23,1.72-3.79,3.76-4.7,6.14c-0.91,2.38-1.32,4.85-1.21,7.41
			c0.1,2.56,0.64,5.1,1.6,7.6C110.04,96.99,111.27,99.21,112.76,101.14z"/>
		<path class="st3" d="M185.35,89.89c-2.15,1.02-4.35,1.6-6.58,1.72c-2.23,0.12-4.35-0.15-6.37-0.8c-2.01-0.65-3.85-1.68-5.5-3.06
			c-1.66-1.38-2.96-3.08-3.92-5.09l-16.97-35.68l9.47-4.51l16.97,35.68c0.8,1.68,2.04,2.81,3.74,3.42c1.7,0.6,3.38,0.5,5.05-0.29
			c1.68-0.8,2.81-2.04,3.42-3.74c0.6-1.69,0.51-3.38-0.29-5.05L167.4,36.8l9.48-4.51l16.97,35.68c0.95,2.01,1.45,4.09,1.48,6.25
			c0.03,2.16-0.34,4.22-1.1,6.2c-0.76,1.98-1.89,3.79-3.4,5.45C189.33,87.53,187.5,88.87,185.35,89.89z"/>
		<path class="st3" d="M212.09,20.62l2.76,9.13l-14.15,4.28l6.45,21.3l12.63-3.82l2.76,9.13l-12.63,3.82l1.38,4.57l14.15-4.28
			l2.76,9.13l-24.2,7.32l-16.12-53.27L212.09,20.62z"/>
		<path class="st3" d="M265.35,47.21c-1.54,0.1-2.81,0.72-3.83,1.87c-1.02,1.15-1.48,2.49-1.38,4.03c0.09,1.54,0.72,2.81,1.87,3.83
			c1.15,1.02,2.49,1.48,4.03,1.38c1.53-0.1,2.81-0.72,3.83-1.87c1.02-1.15,1.48-2.49,1.38-4.03l-2.87-46.82l10.47-0.64l2.88,46.82
			c0.13,2.06-0.18,4.05-0.91,5.95c-0.73,1.9-1.79,3.57-3.16,5.01c-1.37,1.44-3,2.61-4.88,3.53c-1.88,0.91-3.93,1.44-6.16,1.57
			c-2.22,0.14-4.34-0.13-6.34-0.81c-2.01-0.67-3.76-1.64-5.28-2.9c-1.51-1.26-2.75-2.79-3.71-4.59c-0.96-1.8-1.5-3.73-1.63-5.79
			c-0.11-1.75,0.1-3.43,0.61-5.06c0.51-1.62,1.25-3.1,2.24-4.44c0.98-1.33,2.17-2.51,3.57-3.52c1.4-1.01,2.96-1.79,4.68-2.32
			L265.35,47.21z"/>
		<path class="st3" d="M315.98,13.34l-0.78,9.51l-14.74-1.2l-1.82,22.18l13.15,1.08l-0.78,9.51l-13.15-1.08l-0.39,4.75l14.74,1.21
			l-0.78,9.51l-25.2-2.06l4.54-55.46L315.98,13.34z"/>
		<path class="st3" d="M382.26,67.96l24.78-35.1l9.73,3.92l-36.75,52.04l-9.73-3.92l2.77-25.8l-15.9,20.51l-9.73-3.92l9.62-62.98
			l9.73,3.92l-6.49,42.47l26.62-34.35L382.26,67.96z"/>
		<path class="st3" d="M445.56,63.7l-5.3,7.94l-12.3-8.21L415.6,81.94l10.98,7.33l-5.3,7.94l-10.98-7.33l-2.65,3.97l12.3,8.21
			l-5.3,7.94l-21.03-14.03l30.89-46.29L445.56,63.7z"/>
		<path class="st3" d="M454.91,70.22l7.82,6.99c2.21,1.98,3.9,4.23,5.05,6.75c1.15,2.53,1.79,5.12,1.9,7.78
			c0.11,2.66-0.27,5.27-1.14,7.83c-0.87,2.56-2.22,4.87-4.06,6.93c-1.7,1.9-3.66,3.42-5.88,4.56c-2.23,1.14-4.55,1.87-6.97,2.19
			c0.44,1.82,0.46,3.64,0.06,5.49c-0.4,1.84-1.26,3.5-2.56,4.96c-1.1,1.22-2.39,2.15-3.87,2.78c-1.49,0.63-3.02,0.95-4.59,0.96
			c-1.58,0.02-3.16-0.26-4.75-0.83c-1.59-0.57-3.04-1.43-4.34-2.6l-13.75-12.29L454.91,70.22z M432.01,111.59l5.93,5.3
			c0.47,0.42,1.04,0.63,1.7,0.61c0.65-0.02,1.21-0.28,1.67-0.8c0.43-0.48,0.62-1.05,0.58-1.72c-0.04-0.67-0.3-1.22-0.77-1.65
			l-5.93-5.3L432.01,111.59z M441.55,100.92c1.07,0.95,2.26,1.63,3.58,2.02c1.32,0.4,2.67,0.54,4.05,0.42
			c1.38-0.12,2.72-0.5,4.02-1.15c1.29-0.66,2.45-1.56,3.48-2.7c1.02-1.14,1.79-2.4,2.29-3.76c0.5-1.36,0.74-2.73,0.7-4.12
			c-0.04-1.38-0.33-2.71-0.87-3.98c-0.54-1.26-1.34-2.37-2.41-3.33L441.55,100.92z"/>
		<path class="st1" d="M473.57,132.24c0.99,1.32,1.36,2.78,1.14,4.36c-0.23,1.59-1,2.87-2.33,3.86c-1.32,0.99-2.78,1.37-4.36,1.14
			c-1.59-0.23-2.87-1-3.86-2.33c-0.99-1.32-1.37-2.78-1.14-4.36c0.23-1.59,1-2.87,2.33-3.86c1.32-0.99,2.77-1.37,4.36-1.14
			C471.3,130.14,472.58,130.92,473.57,132.24z"/>
	</g>
	<g>
		<path class="st3" d="M124.08,427.57l4.42,5.01c1.25,1.42,2.09,2.91,2.53,4.48c0.44,1.57,0.51,3.1,0.22,4.6
			c-0.3,1.5-0.93,2.9-1.89,4.2c-0.96,1.3-2.23,2.39-3.79,3.28c-1.46,0.79-3.03,1.36-4.71,1.7c-1.68,0.34-3.39,0.41-5.12,0.24
			c0.05,1.08-0.2,2.1-0.75,3.05c-0.55,0.96-1.38,1.75-2.5,2.37c-0.92,0.54-1.93,0.88-3.04,1.03c-1.11,0.15-2.21,0.11-3.31-0.12
			c-1.1-0.22-2.15-0.61-3.17-1.15c-1.02-0.54-1.89-1.23-2.63-2.06l-7.77-8.8L124.08,427.57z M102.39,447.32l3.35,3.79
			c0.27,0.3,0.63,0.5,1.09,0.59c0.46,0.09,0.88,0.01,1.25-0.23c0.37-0.19,0.59-0.48,0.66-0.85c0.07-0.38-0.03-0.72-0.29-1.02
			l-3.35-3.79L102.39,447.32z M110.49,442.74c0.6,0.68,1.33,1.23,2.19,1.64c0.86,0.41,1.77,0.68,2.75,0.81
			c0.97,0.13,1.95,0.11,2.94-0.07c0.99-0.18,1.92-0.51,2.79-1.01c0.87-0.5,1.57-1.09,2.1-1.79c0.53-0.69,0.89-1.43,1.07-2.19
			c0.18-0.76,0.17-1.54-0.02-2.31s-0.59-1.51-1.19-2.19L110.49,442.74z"/>
		<path class="st3" d="M138.95,443.34l4.91,4.52c1.39,1.28,2.38,2.68,2.98,4.19s0.83,3.03,0.69,4.55c-0.14,1.52-0.62,2.98-1.45,4.37
			c-0.83,1.4-1.97,2.61-3.43,3.65c-1.72,1.22-3.66,2.05-5.84,2.5c-2.18,0.45-4.36,0.51-6.54,0.2l-6.16,10.49l-4.91-4.52l4.85-8.26
			c-0.37-0.25-0.72-0.49-1.07-0.74c-0.34-0.25-0.69-0.53-1.04-0.85l-7.58,5.39l-4.91-4.52L138.95,443.34z M126.99,459.84
			c0.67,0.62,1.45,1.09,2.35,1.41c0.89,0.32,1.83,0.5,2.81,0.53c0.98,0.03,1.95-0.09,2.92-0.37c0.97-0.28,1.86-0.71,2.67-1.29
			c0.81-0.58,1.45-1.25,1.91-1.99c0.46-0.75,0.74-1.51,0.84-2.29c0.1-0.78,0.01-1.55-0.26-2.3c-0.27-0.75-0.74-1.44-1.41-2.05
			L126.99,459.84z"/>
		<path class="st3" d="M168.29,467.27l-4.67,4.07l-7.5-5.68l-10.97,9.46l6.69,5.07l-4.67,4.07l-6.69-5.07l-2.36,2.02l7.5,5.68
			l-4.67,4.07l-12.82-9.72l27.36-23.7L168.29,467.27z"/>
		<path class="st3" d="M176.43,472.07l-25.7,25.49l-5.58-3.67l25.7-25.49L176.43,472.07z"/>
		<path class="st3" d="M179.62,473.74l16.83,9.29l-4.04,4.71l-27.45,11.43l11.87,6.55l-4.04,4.7l-17.72-9.77l4.04-4.71l27.45-11.43
			l-10.98-6.06L179.62,473.74z"/>
		<path class="st3" d="M204.92,486.02l-13.43,19.63l7.76,3.21l13.43-19.63l6.17,2.55l-20.45,29.86l-6.17-2.55l3.49-5.13l-7.76-3.21
			l-3.49,5.13l-6.17-2.55l20.45-29.86L204.92,486.02z"/>
		<path class="st3" d="M239.6,496.64c2.3,0.51,4.09,1.48,5.37,2.88c1.28,1.41,2.13,3.04,2.56,4.9c0.43,1.86,0.49,3.83,0.19,5.9
			c-0.31,2.07-0.88,4.04-1.7,5.89c-0.86,1.85-2.03,3.67-3.51,5.49c-1.48,1.81-3.16,3.39-5.05,4.73c-1.89,1.34-3.93,2.33-6.13,2.96
			c-2.2,0.63-4.45,0.69-6.75,0.18l-6.52-1.45l15.02-32.93L239.6,496.64z M227.14,523.92c1.02,0.23,2.11,0.16,3.26-0.2
			c1.15-0.36,2.29-0.97,3.41-1.8c1.12-0.84,2.18-1.86,3.17-3.08c1-1.21,1.84-2.57,2.52-4.08c0.68-1.51,1.13-2.95,1.33-4.34
			c0.21-1.39,0.2-2.65-0.01-3.79c-0.21-1.14-0.64-2.09-1.28-2.85c-0.64-0.76-1.47-1.26-2.49-1.49L227.14,523.92z"/>
		<path class="st3" d="M271.43,501.3l-1.99,5.87l-9.34-1.13l-4.71,13.7l8.34,1.01l-1.99,5.87l-8.34-1.01l-1.02,2.93l9.34,1.13
			l-1.99,5.87l-15.97-1.93l11.69-34.26L271.43,501.3z"/>
		<path class="st3" d="M279.69,501.14l0.04,21.2l9.88-21.01l6.68,0.13l-16.48,35.09l-6.68-0.13l-0.11-35.42L279.69,501.14z"/>
		<path class="st3" d="M314.15,499.35l-0.77,6.15l-9.38,0.77l-1.87,14.37l8.37-0.68l-0.76,6.15l-8.37,0.68l-0.41,3.08l9.38-0.77
			l-0.77,6.15l-16.03,1.31l4.57-35.91L314.15,499.35z"/>
		<path class="st3" d="M323.12,497.4l-1.16,29.97l9.27-1.6l-0.22,6.2l-15.85,2.73l1.37-36.17L323.12,497.4z"/>
		<path class="st3" d="M347.21,491.14c2.23-0.65,4.36-0.79,6.39-0.41c2.03,0.38,3.82,1.18,5.39,2.41c1.57,1.23,2.86,2.82,3.87,4.78
			c1.01,1.96,1.61,4.19,1.82,6.69c0.2,2.51-0.04,4.98-0.73,7.43c-0.69,2.45-1.71,4.71-3.05,6.79c-1.35,2.08-2.96,3.87-4.83,5.39
			c-1.88,1.51-3.93,2.59-6.17,3.25c-2.23,0.65-4.36,0.79-6.39,0.41c-2.03-0.38-3.82-1.18-5.39-2.41c-1.57-1.23-2.86-2.82-3.87-4.78
			c-1.01-1.95-1.61-4.18-1.82-6.69c-0.16-2.38,0.08-4.77,0.72-7.19c0.65-2.42,1.62-4.68,2.93-6.78s2.9-3.94,4.8-5.51
			C342.76,492.95,344.88,491.82,347.21,491.14z M338.83,512.13c0.13,1.65,0.51,3.13,1.13,4.44c0.63,1.31,1.42,2.38,2.38,3.2
			c0.96,0.83,2.05,1.38,3.27,1.66c1.22,0.28,2.5,0.22,3.83-0.16c1.33-0.39,2.56-1.06,3.7-2.03c1.14-0.96,2.11-2.11,2.89-3.45
			c0.79-1.34,1.39-2.81,1.8-4.42c0.41-1.61,0.55-3.24,0.42-4.89c-0.13-1.65-0.51-3.12-1.13-4.41c-0.62-1.3-1.42-2.35-2.38-3.18
			c-0.96-0.83-2.05-1.39-3.28-1.68c-1.23-0.29-2.5-0.25-3.83,0.14c-1.49,0.44-2.81,1.18-3.96,2.23c-1.15,1.05-2.1,2.27-2.86,3.65
			c-0.76,1.38-1.31,2.85-1.64,4.4C338.84,509.18,338.73,510.68,338.83,512.13z"/>
		<path class="st3" d="M364.42,484.8l6.1-2.72c1.72-0.77,3.4-1.13,5.03-1.08c1.63,0.05,3.11,0.44,4.45,1.17
			c1.34,0.73,2.49,1.75,3.44,3.06c0.96,1.31,1.62,2.84,1.99,4.59c0.38,1.76,0.42,3.56,0.15,5.42c-0.28,1.86-0.84,3.64-1.66,5.34
			c-0.83,1.7-1.9,3.23-3.22,4.59c-1.32,1.36-2.83,2.43-4.56,3.19l1.95,9.1l-6.1,2.72L364.42,484.8z M374.83,502.31
			c0.83-0.37,1.57-0.9,2.22-1.6c0.65-0.69,1.18-1.49,1.6-2.37c0.42-0.89,0.69-1.83,0.82-2.83c0.13-1,0.08-1.99-0.13-2.96
			c-0.21-0.98-0.57-1.82-1.08-2.54c-0.5-0.72-1.09-1.28-1.77-1.68c-0.68-0.4-1.41-0.63-2.21-0.68c-0.8-0.05-1.61,0.11-2.44,0.48
			L374.83,502.31z"/>
		<path class="st3" d="M383.73,475.42l5.79-3.33c1.64-0.94,3.27-1.47,4.89-1.59c1.63-0.12,3.14,0.12,4.55,0.71
			c1.41,0.59,2.66,1.49,3.74,2.69c1.08,1.2,1.9,2.66,2.46,4.36c0.56,1.71,0.79,3.5,0.7,5.38c-0.08,1.88-0.45,3.71-1.11,5.48
			c-0.65,1.78-1.56,3.41-2.72,4.9c-1.17,1.49-2.57,2.71-4.2,3.65l2.88,8.85l-5.79,3.33L383.73,475.42z M395.89,491.77
			c0.79-0.45,1.47-1.06,2.04-1.82c0.58-0.76,1.02-1.6,1.35-2.53c0.32-0.92,0.5-1.89,0.52-2.9c0.02-1-0.12-1.98-0.43-2.93
			c-0.31-0.95-0.76-1.75-1.33-2.41c-0.57-0.66-1.22-1.16-1.93-1.48c-0.72-0.33-1.47-0.48-2.27-0.44c-0.8,0.03-1.59,0.28-2.38,0.73
			L395.89,491.77z"/>
		<path class="st3" d="M415.14,454.69l2.49,5.68l-7.67,5.46l5.74,13.3l6.84-4.87l2.49,5.68l-6.84,4.87l1.22,2.85l7.67-5.46
			l2.49,5.68l-13.11,9.33l-14.43-33.19L415.14,454.69z"/>
		<path class="st3" d="M442.59,477.3c-1.14,1-2.34,1.69-3.59,2.08c-1.26,0.38-2.49,0.49-3.7,0.31c-1.21-0.18-2.34-0.63-3.39-1.37
			c-1.05-0.74-1.93-1.74-2.63-3L416.7,452.9l5.02-4.4l12.58,22.41c0.57,1.07,1.37,1.69,2.39,1.88c1.02,0.19,1.97-0.11,2.86-0.89
			c0.89-0.78,1.43-1.79,1.63-3.05s0.02-2.41-0.56-3.48l-12.58-22.41l5.02-4.4l12.58,22.41c0.71,1.27,1.16,2.64,1.36,4.12
			c0.2,1.48,0.16,2.96-0.11,4.44c-0.28,1.48-0.78,2.89-1.5,4.24S443.73,476.3,442.59,477.3z"/>
		<path class="st3" d="M434.15,436.53l4.51-4.92c1.28-1.39,2.67-2.39,4.19-2.99c1.51-0.6,3.03-0.84,4.55-0.7
			c1.52,0.14,2.98,0.62,4.38,1.44c1.4,0.83,2.61,1.97,3.65,3.43c1.22,1.71,2.06,3.66,2.51,5.84c0.45,2.18,0.52,4.36,0.21,6.54
			l10.5,6.14l-4.51,4.92l-8.26-4.84c-0.25,0.37-0.49,0.72-0.74,1.07c-0.25,0.35-0.53,0.69-0.85,1.04l5.41,7.58l-4.51,4.92
			L434.15,436.53z M450.67,448.46c0.61-0.67,1.08-1.45,1.4-2.35c0.32-0.9,0.49-1.84,0.52-2.82c0.03-0.98-0.1-1.95-0.38-2.92
			c-0.28-0.97-0.71-1.85-1.3-2.67c-0.58-0.81-1.25-1.44-2-1.9c-0.75-0.46-1.51-0.74-2.29-0.83c-0.78-0.1-1.55-0.01-2.3,0.26
			c-0.75,0.27-1.44,0.74-2.05,1.41L450.67,448.46z"/>
	</g>
	<circle class="st1" cx="477.09" cy="415.05" r="3.7"/>
	<circle class="st1" cx="89.09" cy="414.56" r="3.7"/>
	<g>
		<g>
			<g>
				<g>
					<path class="st3" d="M142.21,364.39h-5.79V186.62c0-6.9,5.62-12.52,12.52-12.52h172.69v5.79H148.94
						c-3.71,0-6.73,3.02-6.73,6.73V364.39z"/>
					<path class="st3" d="M143.46,365.64h-8.28V186.62c0-7.59,6.18-13.77,13.77-13.77h173.94v8.28H148.94
						c-3.02,0-5.48,2.46-5.48,5.48V365.64z M137.67,363.14h3.3V186.62c0-4.4,3.58-7.98,7.98-7.98h171.45v-3.3H148.94
						c-6.22,0-11.27,5.06-11.27,11.27V363.14z"/>
				</g>
			</g>
			<g>
				<g>
					<rect x="416.78" y="234.74" class="st3" width="5.79" height="129.65"/>
					<path class="st3" d="M423.82,365.64h-8.28V233.5h8.28V365.64z M418.03,363.14h3.3V235.99h-3.3V363.14z"/>
				</g>
			</g>
			<g>
				<g>
					<path class="st3" d="M409.92,397.83h-261c-12.65,0-22.94-10.29-22.94-22.94v-13.4h131.39v4.97c0,2.81,2.29,5.1,5.1,5.1h33.58
						c2.81,0,5.1-2.29,5.1-5.1v-4.96h131.72v13.38C432.87,387.53,422.57,397.83,409.92,397.83z M131.77,367.29v7.61
						c0,9.46,7.69,17.15,17.15,17.15h261c9.46,0,17.16-7.7,17.16-17.16v-7.59H306.92c-0.42,5.62-5.13,10.07-10.86,10.07h-33.58
						c-5.73,0-10.44-4.44-10.86-10.07H131.77z"/>
					<path class="st3" d="M409.92,399.08h-261c-13.33,0-24.18-10.85-24.18-24.18v-14.64h133.89v6.21c0,2.12,1.73,3.85,3.85,3.85
						h33.58c2.13,0,3.86-1.73,3.86-3.86v-6.21h134.21v14.63C434.12,388.22,423.26,399.08,409.92,399.08z M127.23,362.74v12.15
						c0,11.96,9.73,21.69,21.69,21.69h261c11.97,0,21.71-9.74,21.71-21.71v-12.13H302.4v3.71c0,3.5-2.85,6.35-6.35,6.35h-33.58
						c-3.5,0-6.35-2.85-6.35-6.35v-3.72H127.23z M409.92,393.29h-261c-10.14,0-18.39-8.25-18.39-18.39v-8.85h122.25l0.09,1.15
						c0.37,5,4.6,8.91,9.62,8.91h33.58c5.02,0,9.24-3.91,9.62-8.91l0.09-1.15h122.57v8.84
						C428.33,385.03,420.07,393.29,409.92,393.29z M133.02,368.53v6.36c0,8.77,7.13,15.9,15.9,15.9h261
						c8.78,0,15.92-7.14,15.92-15.92v-6.34H308.02c-0.99,5.73-6.04,10.07-11.96,10.07h-33.58c-5.92,0-10.97-4.34-11.96-10.07H133.02
						z"/>
				</g>
			</g>
			<g>
				<g>
					<polygon class="st3" points="401.8,345.79 157.31,345.79 157.31,194.61 301.13,194.61 301.13,200.4 163.1,200.4 163.1,339.99 
						396.01,339.99 396.01,222.11 401.8,222.11 					"/>
					<path class="st3" d="M403.04,347.03H156.07V193.36h146.31v8.28H164.35v137.1h230.41V220.86h8.28V347.03z M158.56,344.54h241.99
						V223.35h-3.3v117.89h-235.4V199.15h138.03v-3.3H158.56V344.54z"/>
				</g>
			</g>
		</g>
		<g>
			<g>
				<g>
					<path class="st2" d="M166.71,344.21l-5.8-4.17c0.45-0.1,4.82-1.43,5.3-1.55c17.52-4.26,50.37-19.4,83.1-72.55
						c51.48-83.57,74.11-108.59,124.84-113.41c23.74-2.24,46.96,5.34,65.42,21.35c18.29,15.88,29.83,38.61,30.86,60.82
						c0.28,6.94-3.92,11.63-10.7,11.99c-6.05,0.31-13.65-2.79-18.32-7.33c-2.02,2.45-4.62,4.46-7.96,4.96
						c-4.7,0.69-9.54-1.72-14.82-7.38c-1.27-1.37-2.77-3.28-4.67-5.71c-8.4-10.72-24.03-30.67-44.17-31.46
						c-12.37-0.53-25.14,6.39-38,20.41c-11.7,12.76-22.18,27.75-32.32,42.24c-21.8,31.16-44.23,63.23-81.28,78.35
						c-6.58,2.69-13.64,1.8-21.22,3.32l-12.02-3.1c0.51-0.1,11.35-2.59,11.85-2.69c45.86-9.82,70-44.34,95.55-80.86
						c10.3-14.73,20.95-29.95,33.04-43.13c14.67-15.99,29.75-23.8,44.74-23.22c24.16,0.94,41.4,22.95,50.67,34.78
						c1.7,2.17,3.17,4.05,4.19,5.14c4.28,4.58,6.46,4.8,7.2,4.71c0.87-0.13,2.71-1.15,5.39-6.57l8.23,1.63
						c0.15,2.24,7.52,7.55,13.47,7.23c1.92-0.1,2.58-0.56,2.48-2.95c-0.92-19.85-11.35-40.28-27.88-54.63
						c-16.64-14.45-37.54-21.3-58.9-19.26c-47.35,4.49-67.76,27.33-118.26,109.31c-27.51,44.67-55.6,63.88-75.4,72.11
						C175.7,344.94,170.78,343.3,166.71,344.21z"/>
					<path class="st2" d="M166.5,345.21l-7.83-5.62l2.03-0.46c0.23-0.05,1.51-0.43,2.74-0.8c1.17-0.35,2.31-0.69,2.54-0.74
						c16.73-4.07,49.7-18.84,82.52-72.13c51.67-83.88,74.42-109,125.55-113.85c24-2.28,47.48,5.4,66.12,21.58
						c18.48,16.04,30.14,39.03,31.18,61.48c0.3,7.5-4.25,12.58-11.59,12.97c-5.88,0.36-13.33-2.5-18.3-6.92
						c-2.35,2.59-5.01,4.11-7.9,4.54c-5,0.72-10.13-1.77-15.64-7.67c-1.3-1.39-2.81-3.32-4.72-5.75
						c-8.31-10.62-23.77-30.35-43.48-31.11c-11.97-0.57-24.56,6.25-37.27,20.11c-11.65,12.7-22.11,27.65-32.22,42.11
						c-21.86,31.25-44.42,63.5-81.72,78.72c-4.11,1.68-8.31,2-12.75,2.34c-2.8,0.21-5.7,0.44-8.65,1.03l-0.21,0.04l-11.9-3.07
						c-1.15,0.53-2.28,1.02-3.37,1.48c-3.61,1.5-6.92,1.45-9.86,1.38c-1.75-0.03-3.42-0.06-4.89,0.26L166.5,345.21z M163.02,340.4
						l3.9,2.81c1.57-0.28,3.2-0.25,4.92-0.22c2.87,0.06,5.86,0.11,9.11-1.24c0.39-0.16,0.78-0.33,1.18-0.5l-1.37-0.36l3.9-0.78
						c18.76-8.71,45.25-27.9,71.25-70.11c50.69-82.29,71.21-105.23,118.97-109.75c21.6-2.07,42.76,4.87,59.6,19.49
						c16.72,14.52,27.26,35.19,28.2,55.3c0.11,2.76-0.77,3.79-3.37,3.92c-5.7,0.35-12.99-4.33-14.26-7.35l-6.97-1.38
						c-2.06,4.01-4,6.18-5.76,6.44c-1.39,0.16-3.89-0.58-8.03-5c-1.05-1.13-2.53-3.02-4.24-5.2c-9.17-11.71-26.25-33.5-49.97-34.42
						c-14.76-0.59-29.54,7.14-44.01,22.92c-12.06,13.15-22.69,28.34-32.96,43.03c-25.66,36.69-49.9,71.34-96.12,81.23
						c-0.19,0.04-1.98,0.45-4.1,0.94c-1.29,0.29-2.71,0.62-3.97,0.91l8.07,2.08c2.98-0.58,5.87-0.8,8.66-1.02
						c4.29-0.33,8.34-0.64,12.18-2.21c36.79-15.01,59.19-47.03,80.85-78c10.19-14.57,20.68-29.56,32.41-42.36
						c13.1-14.28,26.16-21.24,38.73-20.71c20.57,0.8,36.38,20.98,44.86,31.82c1.89,2.41,3.38,4.31,4.62,5.64
						c5.05,5.41,9.62,7.75,14,7.09c2.69-0.39,5.17-1.95,7.38-4.63l0.65-0.78l0.73,0.7c4.53,4.39,11.96,7.34,17.62,7.07
						c6.31-0.33,10.07-4.56,9.81-11.02c-1.02-21.95-12.44-44.44-30.54-60.15c-18.25-15.84-41.23-23.33-64.72-21.13
						c-50.33,4.78-72.84,29.71-124.13,112.97c-33.17,53.86-66.67,68.83-83.68,72.96c-0.23,0.05-1.32,0.38-2.44,0.72
						C163.66,340.21,163.33,340.31,163.02,340.4z M382.32,161.77c-2.41,0-4.84,0.11-7.27,0.35c-46.95,4.45-67.25,27.2-117.55,108.87
						c-23.29,37.81-47.04,57.35-65.38,67.43c0.12-0.03,0.24-0.05,0.35-0.08c2.14-0.49,3.93-0.9,4.13-0.94
						c45.5-9.74,69.53-44.1,94.98-80.48c10.31-14.74,20.97-29.99,33.12-43.23c14.86-16.2,30.14-24.08,45.46-23.52
						c24.59,0.96,42.01,23.19,51.37,35.14c1.61,2.06,3.14,4,4.14,5.08c4.15,4.45,6.06,4.46,6.41,4.43c0.28-0.04,1.94-0.55,4.65-6.06
						l0.32-0.64l9.64,1.91l0.05,0.72c0.1,1.44,6.78,6.64,12.49,6.36c1.38-0.08,1.67-0.09,1.6-1.98
						c-0.91-19.6-11.21-39.78-27.56-53.96C418.7,168.52,400.84,161.77,382.32,161.77z"/>
				</g>
			</g>
			<g>
				<g>
					<path class="st2" d="M332.89,263.57l-8.61-1.1c7.44-58.23,32.15-69.38,33.19-69.83l3.4,7.99l-1.7-4l1.75,3.97
						C360.72,200.71,339.61,210.97,332.89,263.57z"/>
					<path class="st2" d="M333.7,264.62l-10.47-1.34l0.12-0.93c7.51-58.76,32.69-70.12,33.76-70.57l0.86-0.37l4.19,9.66l-0.84,0.38
						c-0.2,0.1-20.9,10.55-27.5,62.23L333.7,264.62z M325.32,261.66l6.76,0.86c6.12-46.32,23.55-59.75,27.6-62.29l-2.69-6.33
						C352.52,196.33,332.14,210.02,325.32,261.66z"/>
				</g>
			</g>
			<g>
				<g>
					<path class="st2" d="M396.87,314.5c-9.68-9.83-17.23-23.19-19.01-35.5c-7.21-49.63,25.67-66.24,27.08-66.92l3.82,7.8
						c-1.17,0.58-28.56,14.75-22.3,57.87c1.52,10.44,6.52,20.04,14.88,28.52L396.87,314.5z"/>
					<path class="st2" d="M397.09,316.05l-0.89-0.9c-10.31-10.47-17.52-23.94-19.27-36.02c-7.3-50.26,26.16-67.2,27.59-67.9
						l0.84-0.41l4.64,9.47l-0.83,0.42c-1.14,0.57-27.95,14.47-21.79,56.9c1.49,10.24,6.41,19.66,14.62,27.99l0.48,0.49
						L397.09,316.05z M404.51,213.35c-5.26,2.93-32.3,20.33-25.73,65.51c1.65,11.35,8.3,24.01,17.87,34.07l3.52-6.5
						c-8.21-8.5-13.13-18.1-14.65-28.54c-5.83-40.12,17.2-55.64,21.99-58.4L404.51,213.35z"/>
				</g>
			</g>
			<g>
				<g>
					<path class="st2" d="M367.11,319.15c-1.16-1.33-28.31-33.22-14.99-86.09l8.42,2.12c-6.35,25.22-2.47,45.13,1.92,57.38
						c4.77,13.34,11.14,20.81,11.21,20.88L367.11,319.15z"/>
					<path class="st2" d="M367.02,320.47l-0.61-0.7c-1.18-1.35-28.64-33.57-15.2-86.94l0.23-0.91l10.24,2.58l-0.23,0.91
						c-6.3,25-2.45,44.71,1.89,56.84c4.68,13.11,10.97,20.51,11.03,20.58l0.6,0.7L367.02,320.47z M352.79,234.2
						c-11.78,48.22,10.33,78.54,14.42,83.62l5.15-4.49c-1.71-2.19-6.81-9.29-10.79-20.45c-4.37-12.23-8.26-32-2.17-57.02
						L352.79,234.2z"/>
				</g>
			</g>
			<g>
				<g>
					<path class="st2" d="M353.01,343.77c-0.91-1.12-0.32-0.4-1.19-1.57c-9.58-12.87-16.6-28.32-16.92-29.03l7.92-3.58
						c0.08,0.18,8.23,18.07,18.42,30.55L353.01,343.77z"/>
					<path class="st2" d="M352.73,344.91l-0.45-0.55c-0.58-0.71-0.59-0.73-0.7-0.89c-0.07-0.1-0.18-0.26-0.52-0.71
						c-9.41-12.66-16.27-27.54-17.02-29.2l-0.39-0.86l9.62-4.35l0.38,0.86c0.08,0.18,8.19,17.97,18.29,30.34l0.77,0.95
						L352.73,344.91z M336.14,313.63c1.64,3.49,8.11,16.82,16.43,28.01c0.37,0.49,0.48,0.66,0.56,0.77
						c0.05,0.07,0.08,0.11,0.16,0.22l6.45-2.84c-8.7-10.99-15.68-25.34-17.38-28.96L336.14,313.63z"/>
				</g>
			</g>
		</g>
	</g>
	<g>
		<g>
			<polygon class="st3" points="401.8,345.79 157.31,345.79 157.31,194.61 288.66,194.61 288.66,200.4 163.1,200.4 163.1,339.99 
				396.01,339.99 396.01,239.57 401.8,239.57 			"/>
			<path class="st3" d="M403.04,347.03H156.07V193.36h133.84v8.28H164.35v137.1h230.41V238.32h8.28V347.03z M158.56,344.54h241.99
				V240.81h-3.3v100.43h-235.4V199.15h125.56v-3.3H158.56V344.54z"/>
		</g>
	</g>
</g>
</svg>
